# xmcd CD database file
#
# Track frame offsets:
#	150
#	14813
#	31053
#	56555
#	76189
#	94400
#
# Disc length: 1453 seconds
#
# Revision: 0
# Processed by: cddbd v1.5PL3 Copyright (c) Steve Scherf et al.
# Submitted via: CDex 1.50beta10
#
DISCID=4305ab06
DTITLE=Kei Kobayashi - Routine Funk Label #EP
DYEAR=2003
DGENRE=Funk
TTITLE0=The 2000number pt1
TTITLE1=The 2000number pt2
TTITLE2=Funk O'nilovic pt1
TTITLE3=Funk O'nilovic pt2
TTITLE4=Routine's Mama Funk ~Long Version
TTITLE5=Abnormal Yellow Band Funky Oreo2000 ~Routine Funk Remix
EXTD=YEAR: 2003
EXTT0=
EXTT1=
EXTT2=
EXTT3=
EXTT4=
EXTT5=
PLAYORDER=
